name GIL06_fast3Moments.mot
datacolumns 7
datarows 67
range 0.11666668 0.66666669
endheader

                time	          RHipMoment	          LHipMoment	         RKneeMoment	         LKneeMoment	        RAnkleMoment	        LAnkleMoment	
          0.11666668	       -396.41876221	        626.78039551	         47.34349060	        427.61508179	        -47.55649185	          1.94240475	
          0.12500001	       -426.84365845	        572.76647949	         71.18157196	        416.33825684	        -46.47066116	         31.02195358	
          0.13333336	       -435.62609863	        487.46096802	         92.85820007	        405.78387451	        -43.35763931	         60.78669357	
          0.14166668	       -417.88156128	        417.65075684	        110.26766968	        381.65310669	        -38.85505676	         91.73609924	
          0.15000002	       -379.68853760	        376.30889893	        123.16986084	        343.53558350	        -33.74100876	        121.54673004	
          0.15833335	       -329.31668091	        335.02670288	        131.71824646	        306.47906494	        -28.75416565	        148.06245422	
          0.16666669	       -278.96911621	        307.79415894	        136.95953369	        265.98910522	        -24.43349075	        174.19158936	
          0.17500001	       -236.38139343	        295.05654907	        139.34506226	        225.76271057	        -21.03325844	        200.22726440	
          0.18333335	       -208.68054199	        281.36087036	        139.93914795	        190.99841309	        -18.53520584	        225.56001282	
          0.19166669	       -193.68164063	        274.96020508	        138.14707947	        154.55534363	        -16.73428917	        250.63313293	
          0.20000002	       -187.39428711	        276.76290894	        134.02789307	        115.42079926	        -15.35430908	        275.19766235	
          0.20833334	       -179.51937866	        278.03317261	        126.25272369	         76.61499786	        -14.15711689	        297.70739746	
          0.21666668	       -167.32296753	        268.30404663	        115.33306885	         42.26852417	        -13.00859165	        317.32290649	
          0.22500002	       -147.28782654	        242.40959167	        101.31664276	         15.02276516	        -11.89552021	        333.39920044	
          0.23333335	       -120.85809326	        206.23107910	         85.65925598	         -6.79438066	        -10.90023327	        348.42102051	
          0.24166669	        -88.91251373	        176.69912720	         69.19385529	        -28.79671478	        -10.14526558	        361.74780273	
          0.25000000	        -56.54079437	        155.57521057	         53.87733459	        -51.06643295	         -9.73167229	        374.51916504	
          0.25833336	        -26.49246025	        145.18330383	         40.34260941	        -75.27967072	         -9.69463921	        388.00189209	
          0.26666668	         -2.05616045	        138.55340576	         29.37623787	        -97.53221130	         -9.98722553	        401.01470947	
          0.27500004	         16.75924301	        125.70239258	         20.64439011	       -113.51553345	        -10.49879646	        413.62158203	
          0.28333336	         29.77931786	        110.23418427	         13.79359436	       -125.77426910	        -11.09792042	        427.25488281	
          0.29166669	         37.89524841	         96.94501495	          7.90975618	       -137.45866394	        -11.67800617	        442.14270020	
          0.30000001	         42.33571243	         83.68412018	          2.07469273	       -149.91278076	        -12.18683815	        461.06277466	
          0.30833334	         44.41370010	         59.11768723	         -4.77550030	       -157.66262817	        -12.62496090	        483.65283203	
          0.31666666	         44.45616531	         24.60074806	        -13.25805569	       -161.57792664	        -13.02065372	        511.15820313	
          0.32500002	         42.28455353	         13.76279449	        -23.71311569	       -184.41624451	        -13.39906883	        546.86834717	
          0.33333334	         39.54445267	        -62.10426331	        -36.37408829	       -170.11468506	        -13.76272202	        586.12762451	
          0.34166670	         37.53228378	       -105.47769165	        -51.02234650	       -171.86442566	        -14.09021854	        631.10961914	
          0.35000002	         39.67579269	       -121.57321930	        -67.45811462	       -187.45007324	        -14.34860039	        679.81353760	
          0.35833335	         48.30496597	       -126.83197784	        -85.19547272	       -210.03010559	        -14.50985241	        732.11004639	
          0.36666667	         66.89253998	       -129.54179382	       -104.06535339	       -235.93669128	        -14.56105518	        785.92443848	
          0.37500003	         94.86430359	       -130.26643372	       -123.50247192	       -266.22238159	        -14.49963951	        841.02081299	
          0.38333336	        131.07551575	       -126.82158661	       -143.23579407	       -301.41101074	        -14.31727791	        897.05615234	
          0.39166668	        167.97967529	       -127.28545380	       -162.26269531	       -336.00692749	        -13.98353291	        952.43231201	
          0.40000001	        202.72218323	       -137.68751526	       -180.68725586	       -366.83645630	        -13.44079304	       1010.26013184	
          0.40833336	        231.87290955	       -164.13661194	       -198.65419006	       -388.36773682	        -12.61714363	       1068.58361816	
          0.41666669	        258.86978149	       -201.34265137	       -217.50932312	       -401.45846558	        -11.44860935	       1127.28710938	
          0.42500001	        286.27612305	       -246.73847961	       -238.04290771	       -406.57446289	         -9.89959335	       1187.10827637	
          0.43333334	        320.80572510	       -290.86495972	       -261.19622803	       -408.09878540	         -7.97679281	       1247.22998047	
          0.44166669	        363.98980713	       -326.21243286	       -286.20657349	       -408.31005859	         -5.73005772	       1304.69555664	
          0.45000002	        416.94662476	       -353.47052002	       -311.51538086	       -405.07354736	         -3.24020338	       1354.83374023	
          0.45833334	        470.54751587	       -380.50238037	       -333.15429688	       -396.69744873	         -0.60405993	       1397.88476563	
          0.46666667	        514.64819336	       -412.14550781	       -346.98526001	       -379.41204834	          2.06912494	       1431.74462891	
          0.47500002	        537.29711914	       -444.20626831	       -349.13912964	       -354.83700562	          4.63695240	       1454.64929199	
          0.48333335	        531.87780762	       -475.80422974	       -337.95288086	       -322.03472900	          6.88150311	       1463.64318848	
          0.49166667	        495.09841919	       -499.88040161	       -313.74227905	       -283.83157349	          8.47215652	       1458.27966309	
          0.50000000	        429.28167725	       -515.36614990	       -279.05059814	       -240.28601074	          8.97349262	       1436.28430176	
          0.50833333	        338.92654419	       -523.82379150	       -237.58555603	       -191.13002014	          7.93614531	       1397.54431152	
          0.51666665	        233.16674805	       -526.32867432	       -188.17910767	       -136.65530396	          0.19113664	       1340.26831055	
          0.52499998	        547.99200439	       -510.71664429	       -262.12396240	        -84.33790588	        -61.40281296	       1263.02404785	
          0.53333336	        887.67279053	       -483.41162109	       -320.86737061	        -32.67426682	       -144.67979431	       1165.55834961	
          0.54166669	        640.62634277	       -440.68630981	       -178.59730530	         13.41272354	       -175.71932983	       1040.21923828	
          0.55000001	        499.53741455	       -400.62005615	        -37.13725662	         57.79545593	       -228.83477783	        889.85131836	
          0.55833334	        281.82989502	       -328.04867554	        113.75388336	         74.88475800	       -249.46165466	        721.66235352	
          0.56666672	        488.92352295	       -229.39215088	         74.70892334	         56.64009094	       -224.28379822	        541.83062744	
          0.57500005	        637.49407959	       -181.59210205	        150.73228455	         34.72524261	       -197.48301697	        353.94436646	
          0.58333337	        373.30700684	       -326.25399780	        383.72570801	         95.11307526	       -185.10574341	        171.82508850	
          0.59166670	        409.42474365	       -335.68621826	        455.46142578	         83.49172211	       -149.45718384	         66.53229523	
          0.60000002	        522.33557129	       -328.49121094	        512.45111084	         80.81803894	       -119.23655701	         13.89364719	
          0.60833335	        569.50842285	       -366.52023315	        578.36407471	        103.15165710	        -93.11425781	        -23.41284561	
          0.61666667	        631.99456787	       -382.43823242	        604.14160156	        111.83141327	        -64.61615753	        -40.54402161	
          0.62500000	        603.77093506	       -398.86764526	        630.90399170	        119.38199615	        -41.47411728	        -48.19987488	
          0.63333333	        555.77679443	       -371.75912476	        637.56561279	        103.57720947	        -20.54579926	        -40.89452362	
          0.64166671	        496.52072144	       -399.22036743	        628.29064941	        127.15360260	         -0.00621454	        -38.51129532	
          0.65000004	        424.69241333	       -413.20355225	        607.19335938	        149.34324646	         19.50419617	        -35.46741867	
          0.65833336	        360.04913330	       -405.75692749	        575.41815186	        166.59063721	         35.42831802	        -32.16937256	
          0.66666669	        314.60650635	       -375.71139526	        533.05511475	        176.06312561	         50.21891785	        -28.98045731	
